<svg xmlns="http://www.w3.org/2000/svg" xmlns:xlink="http://www.w3.org/1999/xlink" viewBox="0 0 1194.79 403.18"><defs><style>.cls-1{isolation:isolate;}.cls-2,.cls-3{opacity:0.65;}.cls-2,.cls-3,.cls-4,.cls-9{mix-blend-mode:multiply;}.cls-2{fill:url(#radial-gradient);}.cls-3{fill:url(#radial-gradient-2);}.cls-4{fill:url(#radial-gradient-3);}.cls-5{fill:#ffc400;}.cls-6{fill:#ffd900;}.cls-7{fill:#4a5361;}.cls-12,.cls-8{fill:#fffeff;}.cls-14,.cls-15,.cls-8{opacity:0.2;mix-blend-mode:screen;}.cls-9{fill:url(#radial-gradient-4);}.cls-10{fill:#586273;}.cls-11{fill:#44403e;}.cls-13{fill:#16a085;}.cls-14{fill:url(#linear-gradient);}.cls-15{fill:url(#linear-gradient-2);}</style><radialGradient id="radial-gradient" cx="-2341.32" cy="757.86" fy="557.7041254365259" r="379.4" gradientTransform="translate(-374.1 100.79) rotate(-90) scale(0.09 1.2)" gradientUnits="userSpaceOnUse"><stop offset="0"/><stop offset="0.09" stop-color="#2b2b2b"/><stop offset="0.23" stop-color="#626262"/><stop offset="0.37" stop-color="#929292"/><stop offset="0.5" stop-color="#b9b9b9"/><stop offset="0.63" stop-color="#d8d8d8"/><stop offset="0.76" stop-color="#eee"/><stop offset="0.89" stop-color="#fbfbfb"/><stop offset="1" stop-color="#fff"/></radialGradient><radialGradient id="radial-gradient-2" cx="2543.72" cy="1332.04" fy="1131.8873319828526" r="379.4" gradientTransform="translate(2049.87 82.21) rotate(90) scale(0.09 1.2)" xlink:href="#radial-gradient"/><radialGradient id="radial-gradient-3" cx="-2076.05" cy="1235.14" fy="1159.3530744757786" r="143.65" gradientTransform="translate(-256.67 782.07) rotate(-90) scale(0.13 1)" xlink:href="#radial-gradient"/><radialGradient id="radial-gradient-4" cx="-893.98" cy="1326.28" fy="1274.180586251366" r="98.75" gradientTransform="translate(-230.25 105.96) rotate(-90) scale(0.13 1)" xlink:href="#radial-gradient"/><linearGradient id="linear-gradient" x1="681.52" y1="735.58" x2="657.97" y2="808.35" gradientTransform="matrix(1, 0, 0, 1, 0, 0)" xlink:href="#radial-gradient"/><linearGradient id="linear-gradient-2" x1="670.58" y1="732.04" x2="670.58" y2="808.53" gradientUnits="userSpaceOnUse"><stop offset="0"/><stop offset="0.66"/><stop offset="0.66" stop-color="#2b2b2b"/><stop offset="0.66" stop-color="#626262"/><stop offset="0.67" stop-color="#929292"/><stop offset="0.67" stop-color="#b9b9b9"/><stop offset="0.67" stop-color="#d8d8d8"/><stop offset="0.67" stop-color="#eee"/><stop offset="0.67" stop-color="#fbfbfb"/><stop offset="0.67" stop-color="#fff"/><stop offset="1"/></linearGradient></defs><title>404</title><g class="cls-1"><g id="Слой_1" data-name="Слой 1"><ellipse class="cls-2" cx="533.67" cy="315.72" rx="454.35" ry="34.84"/><ellipse class="cls-3" cx="454.35" cy="315.72" rx="454.35" ry="34.84"/><path class="cls-4" d="M978.47,1040.82c79.35,0,143.68,8.61,143.68,19.23s-64.33,19.23-143.68,19.23-143.67-8.61-143.67-19.23S899.12,1040.82,978.47,1040.82Z" transform="translate(26.41 -676.1)"/><rect class="cls-5" x="888.35" y="369.55" width="118.1" height="17.52"/><path class="cls-6" d="M943.18,927.12a22.43,22.43,0,0,0-22-18.14h-.37a22.41,22.41,0,0,0-22,18.14l-4.24,21.81h52.86Z" transform="translate(26.41 -676.1)"/><polygon class="cls-6" points="902.18 369.55 992.62 369.55 987.2 341.64 907.6 341.64 902.18 369.55"/><polygon class="cls-6" points="916.75 294.56 911.82 319.92 982.98 319.92 978.05 294.56 916.75 294.56"/><polygon class="cls-7" points="987.21 341.65 907.59 341.65 911.82 319.93 982.97 319.93 987.21 341.65"/><polygon class="cls-7" points="978.04 294.56 916.75 294.56 920.96 272.83 973.83 272.83 978.04 294.56"/><path class="cls-8" d="M925.83,909.49a22.32,22.32,0,0,0-17.38,17.63l-4.26,21.81L900,970.66l-5.22,26.74-3.95,20.35-5.41,27.9h-9.65l5.41-27.9,4-20.35,5.21-26.74,4.21-21.73,4.26-21.81a22.4,22.4,0,0,1,22-18.14h.39A21,21,0,0,1,925.83,909.49Z" transform="translate(26.41 -676.1)"/><rect class="cls-8" x="888.35" y="369.55" width="7.87" height="17.52"/><ellipse class="cls-9" cx="1096.02" cy="225.67" rx="98.77" ry="13.22"/><rect class="cls-5" x="1014.58" y="215.53" width="84.07" height="12.47"/><path class="cls-6" d="M1046,807.26a16,16,0,0,0-15.67-12.92h-.26a16,16,0,0,0-15.67,12.92l-3,15.52H1049Z" transform="translate(26.41 -676.1)"/><polygon class="cls-6" points="1024.42 215.53 1088.81 215.53 1084.95 195.67 1028.28 195.67 1024.42 215.53"/><polygon class="cls-6" points="1034.79 162.15 1031.29 180.2 1081.94 180.2 1078.43 162.15 1034.79 162.15"/><polygon class="cls-7" points="1084.95 195.67 1028.27 195.67 1031.29 180.21 1081.93 180.21 1084.95 195.67"/><polygon class="cls-7" points="1078.42 162.15 1034.8 162.15 1037.79 146.68 1075.43 146.68 1078.42 162.15"/><path class="cls-8" d="M1033.65,794.7a15.89,15.89,0,0,0-12.37,12.55l-3,15.53-3,15.47-3.71,19-2.82,14.48-3.85,19.86H998l3.85-19.86,2.81-14.48,3.71-19,3-15.47,3-15.53a16,16,0,0,1,15.65-12.91h.28A15.19,15.19,0,0,1,1033.65,794.7Z" transform="translate(26.41 -676.1)"/><rect class="cls-8" x="1014.58" y="215.53" width="5.6" height="12.47"/><path class="cls-6" d="M666.83,703.65H586.77a37.48,37.48,0,0,0-37.48,37.48V927l204.89,2.56V833a138.11,138.11,0,0,0-23.57-77.16c-4.79-7.1-13.6-20.77-20.86-28.42C697.43,714.41,684.73,703.65,666.83,703.65Z" transform="translate(26.41 -676.1)"/><path class="cls-5" d="M646.35,866.69H162V920.1H713.35v-.54C713.35,890.36,677.27,866.69,646.35,866.69Z" transform="translate(26.41 -676.1)"/><path class="cls-10" d="M739.72,944H176.46A14.45,14.45,0,0,1,162,929.57V920.1H754.18v9.47A14.46,14.46,0,0,1,739.72,944Z" transform="translate(26.41 -676.1)"/><circle class="cls-11" cx="258.04" cy="937.25" r="58.87" transform="translate(-672.69 91.17) rotate(-64.54)"/><path class="cls-12" d="M226.94,937.25A31.11,31.11,0,1,1,258,968.36,31.11,31.11,0,0,1,226.94,937.25Z" transform="translate(26.41 -676.1)"/><circle class="cls-11" cx="396.72" cy="937.25" r="58.87" transform="matrix(0.13, -0.99, 0.99, 0.13, -557.17, 534.72)"/><path class="cls-12" d="M365.62,937.25a31.1,31.1,0,1,1,31.1,31.11A31.1,31.1,0,0,1,365.62,937.25Z" transform="translate(26.41 -676.1)"/><circle class="cls-11" cx="651.74" cy="937.25" r="58.87" transform="translate(-401.84 631.04) rotate(-74.09)"/><path class="cls-12" d="M620.63,937.25a31.11,31.11,0,1,1,31.11,31.11A31.11,31.11,0,0,1,620.63,937.25Z" transform="translate(26.41 -676.1)"/><rect class="cls-7" x="498.56" y="224.61" width="102.76" height="52.61" rx="10.4"/><path class="cls-10" d="M531.5,687.31V866.69H157.15a12.64,12.64,0,0,1-12.63-12.63V687.31a11.18,11.18,0,0,1,11.17-11.21h364.6A11.21,11.21,0,0,1,531.5,687.31Z" transform="translate(26.41 -676.1)"/><path class="cls-6" d="M531.49,687.3a11.18,11.18,0,0,0-11.18-11.18H155.69a11.17,11.17,0,0,0-11.18,11.18V693h28.24a4.17,4.17,0,0,1,4.17,4.17V828.23a4.17,4.17,0,0,0,4.17,4.17h.08a4.17,4.17,0,0,0,4.17-4.17V697.14a4.18,4.18,0,0,1,4.18-4.17h29.62a4.17,4.17,0,0,1,4.17,4.17V828.23a4.17,4.17,0,0,0,4.17,4.17h.09a4.17,4.17,0,0,0,4.17-4.17V697.14a4.17,4.17,0,0,1,4.17-4.17h29.62a4.17,4.17,0,0,1,4.17,4.17V828.23a4.17,4.17,0,0,0,4.17,4.17H274a4.17,4.17,0,0,0,4.17-4.17V697.14A4.17,4.17,0,0,1,282.3,693h29.63a4.17,4.17,0,0,1,4.17,4.17V828.23a4.17,4.17,0,0,0,4.17,4.17h.08a4.17,4.17,0,0,0,4.17-4.17V697.14a4.17,4.17,0,0,1,4.17-4.17h29.63a4.17,4.17,0,0,1,4.17,4.17V828.23a4.17,4.17,0,0,0,4.17,4.17h.09a4.17,4.17,0,0,0,4.17-4.17V697.14a4.17,4.17,0,0,1,4.17-4.17h29.62a4.17,4.17,0,0,1,4.17,4.17V828.23a4.17,4.17,0,0,0,4.17,4.17h.09a4.17,4.17,0,0,0,4.17-4.17V697.14a4.17,4.17,0,0,1,4.17-4.17h29.63a4.17,4.17,0,0,1,4.17,4.17V828.23a4.17,4.17,0,0,0,4.17,4.17h.08a4.17,4.17,0,0,0,4.17-4.17V697.14a4.17,4.17,0,0,1,4.17-4.17H497.5a4.17,4.17,0,0,1,4.17,4.17V828.23a4.17,4.17,0,0,0,4.17,4.17h.09a4.17,4.17,0,0,0,4.17-4.17V697.14a4.17,4.17,0,0,1,4.17-4.17h17.22Z" transform="translate(26.41 -676.1)"/><rect class="cls-7" x="164.52" y="223.42" width="47.79" height="44.51" rx="8.67"/><rect class="cls-7" x="750.53" y="223.42" width="40.29" height="44.51" rx="8.67"/><path class="cls-5" d="M727.09,842.8h12.67c5.38,0,9.74,3.61,9.74,8.05v16.67c0,3.17-3.11,5.74-7,5.74h-.33c-14.27,0-25.83-9.55-25.83-21.32v-.3C716.39,846.76,721.18,842.8,727.09,842.8Z" transform="translate(26.41 -676.1)"/><path class="cls-13" d="M705.2,757.13c-3-4.38-9.83-13.77-13.74-18-6.44-7-12.51-9.83-20.88-9.83H631.33a10,10,0,0,0-10,10V799a10,10,0,0,0,10,10h78.11c5.73,0,10.38-4.12,10.38-9.19v-.33C719.82,784.38,714.2,770.34,705.2,757.13Z" transform="translate(26.41 -676.1)"/><path class="cls-14" d="M705.2,757.13c-3-4.38-9.83-13.77-13.74-18-6.44-7-12.51-9.83-20.88-9.83H631.33a10,10,0,0,0-10,10V799a10,10,0,0,0,10,10h78.11c5.73,0,10.38-4.12,10.38-9.19v-.33C719.82,784.38,714.2,770.34,705.2,757.13Z" transform="translate(26.41 -676.1)"/><path class="cls-15" d="M705.2,757.13c-3-4.38-9.83-13.77-13.74-18-6.44-7-12.51-9.83-20.88-9.83H631.33a10,10,0,0,0-10,10V799a10,10,0,0,0,10,10h78.11c5.73,0,10.38-4.12,10.38-9.19v-.33C719.82,784.38,714.2,770.34,705.2,757.13Z" transform="translate(26.41 -676.1)"/><path class="cls-11" d="M246.48,937.25A11.56,11.56,0,1,1,258,948.81,11.57,11.57,0,0,1,246.48,937.25Z" transform="translate(26.41 -676.1)"/><circle class="cls-11" cx="423.13" cy="261.15" r="11.56"/><path class="cls-11" d="M640.18,937.25a11.56,11.56,0,1,1,11.56,11.56A11.56,11.56,0,0,1,640.18,937.25Z" transform="translate(26.41 -676.1)"/><path class="cls-7" d="M549.3,847.2v19.49H157.15a12.64,12.64,0,0,1-12.63-12.63V847.2Z" transform="translate(26.41 -676.1)"/></g></g></svg>