<svg xmlns="http://www.w3.org/2000/svg" width="2105.34" height="441" viewBox="0 0 2105.34 441">
  <defs>
    <style>
      .cls-1 {
        fill: #ffb300;
      }

      .cls-1, .cls-2, .cls-4 {
        fill-rule: evenodd;
      }

      .cls-2, .cls-3 {
        fill: #052c52;
      }

      .cls-3 {
        font-size: 115px;
        font-family: Rubik;
      }

      .cls-4 {
        fill: #fff;
      }
    </style>
  </defs>
  <path class="cls-1" d="M744.758,170c54.168,4.663,88.838,17.959,93.5,39.608C849.177,260.277,691.7,337.469,486.516,382.022s-380.361,39.6-391.277-11.071c-4.664-21.649,21.434-48.141,68.841-74.86C92.685,330.911,51.5,366.635,57.6,394.916c12.118,56.245,206.58,61.748,434.344,12.29S894.52,272.06,882.4,215.814C876.309,187.534,824.105,172.087,744.758,170Z" transform="translate(-7 -5)"/>
  <path id="Transpo" class="cls-2" d="M1132.51,203a6.844,6.844,0,0,0,5.06-1.967,6.5,6.5,0,0,0,1.97-4.777V40.863h51.7a6.845,6.845,0,0,0,5.06-1.967,6.5,6.5,0,0,0,1.97-4.777V13.325a6.742,6.742,0,0,0-7.03-7.025H1047.93a6.525,6.525,0,0,0-4.78,1.967,6.851,6.851,0,0,0-1.96,5.058V34.119a6.7,6.7,0,0,0,6.74,6.744h51.99V196.256a6.7,6.7,0,0,0,6.74,6.744h25.85Zm103.13,0a6.844,6.844,0,0,0,5.06-1.967,6.5,6.5,0,0,0,1.97-4.777V118.981q0-13.488,7.44-20.934t20.94-7.446h21.91a6.391,6.391,0,0,0,4.92-1.967,6.751,6.751,0,0,0,1.83-4.777V63.624a6.766,6.766,0,0,0-1.83-4.777,6.406,6.406,0,0,0-4.92-1.967h-11.52q-13.485,0-23.74,4.777a42.142,42.142,0,0,0-16.72,13.769V63.905a6.6,6.6,0,0,0-2.11-5.058,6.979,6.979,0,0,0-4.92-1.967h-22.76a6.5,6.5,0,0,0-4.77,1.967,6.82,6.82,0,0,0-1.97,5.058V196.256a6.721,6.721,0,0,0,6.74,6.744h24.45Zm147.1-.14a50.55,50.55,0,0,0,15.04-7.728,48.591,48.591,0,0,0,9.83-9.835v10.959a6.75,6.75,0,0,0,1.83,4.777,6.361,6.361,0,0,0,4.92,1.967h22.76a6.721,6.721,0,0,0,6.74-6.744V108.022a63.628,63.628,0,0,0-3.37-20.794,44.259,44.259,0,0,0-10.68-17.141q-7.3-7.3-19.53-11.662t-29.93-4.355q-16.29,0-27.81,4.215-11.535,4.215-18.69,10.257a44.506,44.506,0,0,0-10.68,12.5q-3.51,6.467-3.79,10.959a5.81,5.81,0,0,0,1.82,4.5,6.209,6.209,0,0,0,4.36,1.686h21.64a4.019,4.019,0,0,0,2.39-.7,6.272,6.272,0,0,0,1.82-2.669q2.8-2.806,6.32-6.322a33.815,33.815,0,0,1,8.86-6.182q5.325-2.667,13.48-2.669,14.34,0,20.24,6.463t5.9,18.265v5.9l-38.5,5.62q-25.86,3.939-41.87,15.6t-16.02,31.331a36.718,36.718,0,0,0,6.89,21.778,48.445,48.445,0,0,0,18.68,15.455,59.5,59.5,0,0,0,26.42,5.76A66.419,66.419,0,0,0,1382.74,202.86ZM1359,177.008a22.669,22.669,0,0,1-9.7-6.463,15.532,15.532,0,0,1-3.79-10.538q0-8.147,8.15-13.769t24.73-8.149l28.1-4.5v5.9q0,13.488-4.64,22.339a29.933,29.933,0,0,1-12.64,13.067,37.736,37.736,0,0,1-17.85,4.215A36.437,36.437,0,0,1,1359,177.008ZM1511.3,203a6.7,6.7,0,0,0,6.74-6.744V118.981q0-16.293,8.72-25.571,8.7-9.273,23.32-9.273,15.165,0,23.18,9.273t8.01,25.571v77.275a6.721,6.721,0,0,0,6.74,6.744h24.73a6.721,6.721,0,0,0,6.75-6.744V117.3q0-19.665-6.89-33.72A51.357,51.357,0,0,0,1593.07,61.8q-12.645-7.725-29.78-7.727-16.86,0-28.24,6.041a59.859,59.859,0,0,0-18.69,15.033V63.624a6.721,6.721,0,0,0-6.75-6.744h-23.04a6.721,6.721,0,0,0-6.74,6.744V196.256a6.721,6.721,0,0,0,6.74,6.744h24.73Zm235.06-2.95q14.46-5.757,21.91-15.877a37.48,37.48,0,0,0,7.45-22.761,39.242,39.242,0,0,0-4.64-18.967q-4.635-8.57-15.73-15.174-11.115-6.6-29.93-9.976-16.575-3.372-24.73-6.463t-10.82-6.6a13.3,13.3,0,0,1-2.67-8.29,14.521,14.521,0,0,1,5.62-11.661q5.625-4.637,16.3-4.636,8.43,0,13.63,2.248a32.991,32.991,0,0,1,8.85,5.48c2.44,2.156,4.68,4.171,6.75,6.041a14.124,14.124,0,0,0,2.24,1.405,5.535,5.535,0,0,0,2.53.562h20.8a6.4,6.4,0,0,0,4.49-1.826,5.656,5.656,0,0,0,1.69-4.918q-0.285-4.215-4.22-9.975a50.135,50.135,0,0,0-11.38-11.38,65.735,65.735,0,0,0-18.68-9.413q-11.25-3.794-26.42-3.794-19.38,0-32.45,6.463t-19.67,16.439a38.394,38.394,0,0,0-1.55,40.6q5.055,8.43,15.46,14.05t26.13,9.273a228.083,228.083,0,0,1,24.73,6.323q8.7,2.95,11.94,6.6a13.909,13.909,0,0,1,3.23,9.554q0,8.154-7.44,12.5-7.455,4.359-18.41,4.355a36.049,36.049,0,0,1-14.05-2.388,38.767,38.767,0,0,1-9.69-5.761q-4.08-3.372-7.73-6.463a6.927,6.927,0,0,0-2.25-1.686,6.332,6.332,0,0,0-1.97-.281h-22.2a6.918,6.918,0,0,0-4.63,1.826,5.454,5.454,0,0,0-1.83,4.918q0.285,3.939,3.94,9.835a46.529,46.529,0,0,0,11.24,11.8q7.575,5.9,19.53,9.835t28.8,3.934Q1731.875,205.81,1746.36,200.05Zm89.21,56.34a6.408,6.408,0,0,0,4.92-1.967,6.767,6.767,0,0,0,1.83-4.777V185.859a49.705,49.705,0,0,0,17.42,14.472q10.68,5.478,25.85,5.479,14.9,0,25.85-5.058a52.4,52.4,0,0,0,18.41-13.909,62.266,62.266,0,0,0,11.38-20.794,88.5,88.5,0,0,0,4.21-25.993q0.285-5.058.28-10.116t-0.28-9.835a98.142,98.142,0,0,0-4.49-26.7,63.434,63.434,0,0,0-11.24-20.934,48.41,48.41,0,0,0-18.27-13.628q-10.95-4.775-25.85-4.777-16.3,0-27.26,5.9a53.393,53.393,0,0,0-17.7,14.893V63.624a6.766,6.766,0,0,0-1.83-4.777,6.384,6.384,0,0,0-4.91-1.967h-22.2a6.721,6.721,0,0,0-6.75,6.744V249.646a6.721,6.721,0,0,0,6.75,6.744h23.88Zm21.36-85.7a32.694,32.694,0,0,1-10.68-12.785,40.39,40.39,0,0,1-3.93-16.158q-0.285-5.334-.29-10.959t0.29-10.678a56.286,56.286,0,0,1,3.79-17,30.469,30.469,0,0,1,10.4-13.629q7.155-5.335,18.68-5.339,12.09,0,18.83,5.2a29.674,29.674,0,0,1,9.83,13.629,64.131,64.131,0,0,1,3.66,18.546q0.27,8.43,0,16.86a64.131,64.131,0,0,1-3.66,18.546,29.657,29.657,0,0,1-9.83,13.629q-6.75,5.2-18.83,5.2Q1863.955,175.743,1856.93,170.685Zm222.69,27.257a54.523,54.523,0,0,0,23.32-22.2q8.01-14.331,9.14-33.439,0.27-5.058.28-12.364t-0.28-12.364q-1.14-19.389-9.42-33.579a56.629,56.629,0,0,0-23.6-22.058q-15.315-7.864-37.23-7.868t-37.24,7.868A56.57,56.57,0,0,0,1980.99,84q-8.295,14.193-9.41,33.579-0.285,5.058-.29,12.364t0.29,12.364q1.11,19.113,9.13,33.439a54.523,54.523,0,0,0,23.32,22.2q15.315,7.863,37.8,7.868T2079.62,197.942Zm-60.84-29.364q-8.145-9.412-8.99-27.679-0.285-4.215-.28-10.959t0.28-10.959q0.84-18.262,8.99-27.678t23.05-9.413q14.88,0,23.04,9.414t8.99,27.679c0.18,2.81.28,6.463,0.28,10.959s-0.1,8.149-.28,10.959q-0.84,18.27-8.99,27.679t-23.04,9.413Q2026.92,177.991,2018.78,168.578Z" transform="translate(-7 -5)"/>
  <text id="logistics_transport" data-name="logistics &amp; transport" class="cls-3" x="1026" y="415">logistics &amp; transport</text>
  <path class="cls-1" d="M738.176,172.2L660.142,35.223C649.3,16.2,629.127,5.013,605.649,5.013H185.621a42.174,42.174,0,0,0-40.564,30.937h61.6a13.112,13.112,0,0,1,12.919,12.985,13,13,0,0,1-5.857,10.84,12.761,12.761,0,0,1-7.062,2.144H138.49a11.673,11.673,0,0,0-1.952,23.174H562.569c7.072-10.487,19.117-17.716,31.583-17.716h30.393c26.165,0,48.881,12.676,60.769,33.909l0.128,0.261,23.883,56.258a10.734,10.734,0,0,1-1.2,10.057,12.322,12.322,0,0,1-10.088,5.667H549.19L527.114,300.912h42.2c7.691-32.586,39.091-58.384,72.03-58.384s55.4,25.8,51.795,58.384h80.821S820.253,201.4,738.176,172.2ZM556.67,99.432a36.038,36.038,0,0,1,3.233-9.789H232.346a12.929,12.929,0,0,1-9.565,21.618H125.638a7.861,7.861,0,0,0-.129,15.721l0,0.013H167.8a12.985,12.985,0,0,1,0,25.969H119.964l-0.02.091c-0.412-.023-0.819-0.063-1.236-0.063a23.07,23.07,0,0,0,0,46.139h62.606a12.744,12.744,0,0,1,7.785,2.7,12.892,12.892,0,0,1-3.918,22.6,12.632,12.632,0,0,1-3.867.664H102.6a5.716,5.716,0,0,0-.466,11.412l-0.01.047h24.646a12.985,12.985,0,0,1,0,25.969H93.186a19.193,19.193,0,0,0,0,38.386c0.382,0,.756-0.035,1.133-0.058a4.8,4.8,0,0,0,.5.058H230.158c7.692-32.586,39.092-58.384,72.03-58.384s55.4,25.8,51.8,58.384H524.436l-2.6-.455ZM299.889,255.8c-26.979,0-52.659,21.98-57.358,49.095s13.363,49.1,40.341,49.1,52.659-21.981,57.358-49.1S326.867,255.8,299.889,255.8Zm19.877,49.095c-2.731,15.755-17.653,28.528-33.33,28.528S260.265,320.648,263,304.893s17.653-28.528,33.33-28.528S322.5,289.137,319.766,304.893ZM294.6,286.316c-10.208,0-19.925,8.317-21.7,18.577s5.056,18.576,15.264,18.576,19.925-8.317,21.7-18.576S304.808,286.316,294.6,286.316ZM639.046,255.8c-26.979,0-52.659,21.98-57.358,49.095s13.362,49.1,40.341,49.1,52.658-21.981,57.357-49.1S666.024,255.8,639.046,255.8Zm19.877,49.095c-2.731,15.755-17.653,28.528-33.33,28.528s-26.171-12.773-23.441-28.528,17.652-28.528,33.329-28.528S661.653,289.137,658.923,304.893Zm-25.166-18.577c-10.208,0-19.925,8.317-21.7,18.577s5.056,18.576,15.264,18.576,19.925-8.317,21.7-18.576S643.965,286.316,633.757,286.316ZM61.011,125.4h32.9a7.07,7.07,0,0,0,0-14.139h-32.9A7.07,7.07,0,0,0,61.011,125.4Zm-15.9,112.475h32.9a7.07,7.07,0,0,0,0-14.139h-32.9A7.07,7.07,0,0,0,45.116,237.874ZM95.831,30.165h32.9a7.069,7.069,0,0,0,0-14.139h-32.9A7.069,7.069,0,0,0,95.831,30.165ZM46.943,262.673h-32.9a7.07,7.07,0,0,0,0,14.139h32.9A7.07,7.07,0,0,0,46.943,262.673Zm651.1-94.451a7,7,0,0,0,5.682-3.284,5.368,5.368,0,0,0,.745-5.049l-23.824-56.123c-10.959-19.465-31.917-31.08-56.1-31.08H594.152c-15.154,0-29.634,12.407-32.281,27.657l-11.762,67.879h22.936a11.7,11.7,0,0,1-3.826-11.279L579.337,98.56c1.588-9.16,10.263-16.586,19.378-16.586H625.2c19.126,0,34.985,10.332,41.523,27.052L688.69,165.2a3.726,3.726,0,0,1-.219,3.019h9.567Z" transform="translate(-7 -5)"/>
  <path class="cls-4" d="M489.47,154.732L495.993,120H291.365s-7.214,33.219,43.007,34.732h155.1ZM374.3,205.294c2.27,9.124,11,32.7,40.672,32.7H475.4l6.141-32.7H374.3Zm107.919-7.845,6.584-35.06H337.976c0.49,9.42,4.641,34.588,34.756,35.06H482.214Z" transform="translate(-7 -5)"/>
</svg>
